<?xml version="1.0" encoding="UTF-8"?>
<svg xmlns="http://www.w3.org/2000/svg" xmlns:xlink="http://www.w3.org/1999/xlink" xmlns:svg="http://www.w3.org/2000/svg" xmlns:dc="http://purl.org/dc/elements/1.1/" xmlns:cc="http://web.resource.org/cc/" xmlns:rdf="http://www.w3.org/1999/02/22-rdf-syntax-ns#" version="1.1">
  <path fill="#0a0a0a" d="m44,110c-2.4-1.6-4.7-3.8-5.3-4.9-0.6-1-1.9-1.9-3-1.9-1.5,0-2-0.7-2-2.8,0-1.5-0.5-3.3-1.2-4-0.9-0.9-0.9-1.5,0-2.4,0.8-0.8,0.9-1.7,0.2-3-1.2-2.1-0.3-7.8,1.2-7.8,0.5,0,0.9-0.6,0.9-1.2,0-2.4,8.8-11,11-10,4,0.1,5.9-0.4,5.9-1.9,0-0.8,0.7-2.3,1.5-3.1,1-1,1.4-2.5,1.1-3.8-0.4-1.5,0-2.5,0.8-2.8s2-2.1,2.6-4c0.9-2.5,2.4-3.9,5.1-5.1,2.1-1,3.9-2.1,3.9-2.6,0-0.4,1-0.6,2.1-0.2,1.6,0.4,2,0.2,1.4-0.7-0.6-1-0.2-1.1,1.4-0.6,1.2,0.4,2.8,0.1,3.6-0.5,1.2-1,1.5-1,1.5,0,0,0.8,0.8,1,2.5,0.6,1.4-0.4,2.5-0.2,2.5,0.3,0,1.8,4.1,3.4,5.3,2.2,1.7-1.7,3.1-1.3,1.7,0.4-1.5,1.8,0,2,2,0.3,1.2-1.1,1.2-1,0,0.5-1.2,1.6-1.2,2,0.1,2.8,0.8,0.5,2,0.7,2.6,0.4,1.6-0.6,1.7,0.7,0.1,2.3-0.9,0.9-0.9,1.5-0.1,2.3s2.3,0.5,5.3-1.1c2.3-1.2,4.5-1.9,4.8-1.6s-1.4,1.4-3.7,2.4c-3.3,1.4-4.1,2.1-3.6,3.7,0.2,1.1,0.5,2.8,0.5,3.7s0.8,1.9,1.7,2.1c1.5,0.4,1.5,0.6-0.5,1.2-2.4,0.8-2.9,2.1-1,2.7,0.9,0.3,0.7,1-0.6,2.3-1.8,1.9-1.8,1.9,0.3,2.9,3,1.3,2.6,2.8-0.5,2-2-0.5-2.5-0.4-2,0.5,0.5,0.7,0,2.1-1,3.2-1.7,1.9-1.7,2,0.4,2.6,1.2,0.3,2.2,0.9,2.2,1.4s-1.1,0.7-2.4,0.3c-1.8-0.4-2.8,0.1-4.4,2.1-1.1,1.4-2.4,2.5-2.9,2.4-2.1-0.4-7.3,1.5-7.3,2.7,0,1.7-1.2,1.8-2.9,0.2-1-1.1-1.8-0.7-3.8,1.6-1.7,2-2.1,3.2-1.4,3.9,1.5,1.6,1.3,3-0.3,2.4-2-0.8-5.6,2.1-5.6,4.3,0,1.2-0.5,1.7-1.4,1.4-0.7-0.3-1.9,0.2-2.6,1.1-0.7,0.8-1.9,1.5-2.7,1.5s-1.6,0.7-2,1.5c-0.3,0.8-0.9,1.5-1.4,1.5s-0.9-0.7-0.9-1.5c0-1.9-2.9-2-4.4-0.1-0.9,1.1-1.9,0.8-5.4-1.6zm-40,1c-1.9-1.8-1.5-4.6,0.6-5.8,2.9-1.5,7.1,2.1,5.5,4.7-1.3,2.2-4.5,2.8-6.1,1.1zm150-42c-0.3-0.5-0.2-1,0.4-1,0.5,0,1.3,0.5,1.6,1,0.3,0.6,0.2,1-0.4,1-0.5,0-1.3-0.4-1.6-1zm-4.3-5c-0.7-1.1-1.1-2-0.9-2s1.2,0.9,2.2,2,1.4,2,0.9,2-1.5-0.9-2.2-2zm-29-6c-0.4-1.2-0.4-3.8,0-5.8,0.5-3.3,0.2-4.1-3-7.2-4.5-4.3-6.2-7.8-6-12,0.6-8,0.6-13-0.1-15-0.7-2.2-0.6-2.3,0.9-1.2,0.8,0.7,1.6,2.1,1.6,3-0.1,5.5,1.3,6.9,4.5,4.8,3.2-2,4.9-2,8.9,0.1,4,2,5.3,3.8,6.5,8.5,0.7,2.8,0.6,4-0.3,4.8-1.1,0.9-1,1.5,0.6,3.1,2.5,2.5,2.4,5.2-0.2,11-3.4,6.9-12,11-13,6.2zm21-12c-0.9-2.4,1-4.9,3.8-4.9,1.8,0,2.3,0.5,2.1,2-0.3,2-2.8,4.5-4.4,4.5-0.5,0-1.1-0.7-1.5-1.6zm-32-32c-0.3-0.5-0.1-1,0.4-1,0.6,0,1.1,0.5,1.1,1,0,0.6-0.2,1-0.4,1-0.3,0-0.8-0.4-1.1-1zm-1.5-5c0-0.5,0.5-1,1-1s1,0.5,1,1c0,0.6-0.5,1-1,1s-1-0.4-1-1zm-1.3-2.6c-0.37-0.4-0.67-1.4-0.67-2.3,0-1.1,0.3-1.2,1.1-0.4,0.6,0.6,1,1.6,0.7,2.3-0.2,0.6-0.7,0.8-1.1,0.4z"/>
  <metadata>
    <rdf:RDF>
      <cc:Work>
        <dc:format>image/svg+xml</dc:format>
        <dc:type rdf:resource="http://purl.org/dc/dcmitype/StillImage"/>
        <cc:license rdf:resource="http://creativecommons.org/licenses/publicdomain/"/>
        <dc:publisher>
          <cc:Agent rdf:about="http://openclipart.org/">
            <dc:title>Open Clip Art Library</dc:title>
          </cc:Agent>
        </dc:publisher>
        <dc:title>Inkblot</dc:title>
        <dc:date>2012-04-07T06:54:36</dc:date>
        <dc:description>A simple blot</dc:description>
        <dc:source>http://openclipart.org/detail/169383/inkblot-by-pawelf</dc:source>
        <dc:creator>
          <cc:Agent>
            <dc:title>pawelf</dc:title>
          </cc:Agent>
        </dc:creator>
        <dc:subject>
          <rdf:Bag>
            <rdf:li>Fleck</rdf:li>
            <rdf:li>Tinte</rdf:li>
            <rdf:li>blot</rdf:li>
            <rdf:li>clip art</rdf:li>
            <rdf:li>clipart</rdf:li>
            <rdf:li>ink</rdf:li>
          </rdf:Bag>
        </dc:subject>
      </cc:Work>
      <cc:License rdf:about="http://creativecommons.org/licenses/publicdomain/">
        <cc:permits rdf:resource="http://creativecommons.org/ns#Reproduction"/>
        <cc:permits rdf:resource="http://creativecommons.org/ns#Distribution"/>
        <cc:permits rdf:resource="http://creativecommons.org/ns#DerivativeWorks"/>
      </cc:License>
    </rdf:RDF>
  </metadata>
</svg>
